<svg xmlns="http://www.w3.org/2000/svg" width="1080" height="670.004" viewBox="0 0 1080 670.004">
  <g id="グループ_682" data-name="グループ 682" transform="translate(-2119 -97.064)">
    <g id="グループ_678" data-name="グループ 678" transform="translate(0 205.064)">
      <g id="グループ_677" data-name="グループ 677" transform="translate(2119 -108)">
        <g id="グループ_563" data-name="グループ 563" transform="translate(0 0)">
          <rect id="長方形_466" data-name="長方形 466" width="1080" height="670" fill="#c8c8c8"/>
        </g>
      </g>
      <circle id="楕円形_48" data-name="楕円形 48" cx="46" cy="46" r="46" transform="translate(2502 102)" fill="#c8c8c8"/>
    </g>
    <path id="交差_9" data-name="交差 9" d="M6548,12147.085H7628v87.212l-450.651,481.688a47.715,47.715,0,0,1-25.5,14.247,48.365,48.365,0,0,1-9.528.948,47.762,47.762,0,0,1-31.308-11.618l-213.786-228.509a29.972,29.972,0,0,0-43.814,0l-304.792,325.784-.621.251Z" transform="translate(-4429.001 -12050.02)" fill="#8b8b8b"/>
    <circle id="楕円形_49" data-name="楕円形 49" cx="46" cy="46" r="46" transform="translate(2502 307.083)" fill="#c8c8c8"/>
  </g>
</svg>
